<svg xmlns="http://www.w3.org/2000/svg" viewBox="0 0 83.37 82.58"><defs><style>.cls-1{fill:#69936c;}</style></defs><title>Icon-Green</title><g id="Layer_2" data-name="Layer 2"><g id="Layer_1-2" data-name="Layer 1"><path class="cls-1" d="M77.72,32.52A37.46,37.46,0,0,1,9.89,61.71a137.57,137.57,0,0,0,19.6-14A192.45,192.45,0,0,1,55.88,28.61c1.19-.73,2.39-1.41,3.58-2.08,1.69-1,6.37-3.3,6.69-3.49.61-.37,1.14-.78,1.66-1.15.08-.06.13-.13.21-.19a9.61,9.61,0,0,0,2.82-3.42,9.21,9.21,0,0,0,1-4.23,5.67,5.67,0,0,0-3,1.82,10.22,10.22,0,0,0-2,3.52c-.12.37-.2.64-.25.77a4,4,0,0,1-2.08,2.22c-1.6.73-3.11,1.42-4.6,2.14a32.64,32.64,0,0,0,2.55-9.11,8.62,8.62,0,0,0-.17-2.53c-5.07,2.06-4,7.88-4.54,9.91a7.65,7.65,0,0,1-3.66,4.77l-2,1.13s.95-2.88,1.15-4a38.11,38.11,0,0,0,.52-10.46,4.09,4.09,0,0,0-.39.22A6.88,6.88,0,0,0,50,18.4c-.36,1.27-.38,8-.64,9.2a7.78,7.78,0,0,1-3.47,4.78l-3.41,2.2.45-1a17.81,17.81,0,0,0,1.21-3.45c.89-3.84.85-12,.7-14.6l-.18.11a11.8,11.8,0,0,0-4.42,5.41c-1,2.38-.46,9.56-1,13a7.49,7.49,0,0,1-3.1,4.78l-3.95,2.78s1.27-4.19,1.55-5.8a67.43,67.43,0,0,0,.53-18.31c-1.47,1-4.41,2.9-5.36,6.46-.82,3,0,15-.84,18.42a7.32,7.32,0,0,1-2.89,4.15c-1.79,1.3-3.74,2.67-3.74,2.67a31.68,31.68,0,0,0,1.73-5.49c.81-5-.06-17.27-.45-20.6-1.36,1-5,3.05-6,7.54C15.94,33.89,18,45,17.71,47.5a8.38,8.38,0,0,1-5,6.5c-2,.82-4.27,1.74-5.75,2.34A37.45,37.45,0,0,1,66,13.17a22.07,22.07,0,0,1,2.86-2.57,41.24,41.24,0,1,0,12.7,21.67A20.32,20.32,0,0,1,77.72,32.52Z"/><path class="cls-1" d="M76.51,17.89a3.62,3.62,0,0,0-.91.41l-.12.09a9.9,9.9,0,0,0-2.6,2.73l-.16.24.35.06a20.51,20.51,0,0,0,4.45.39,6,6,0,0,0,1.27-.19,7.18,7.18,0,0,0,1.61-.74,11.06,11.06,0,0,0,1.82-1.41,16,16,0,0,0,1.15-1.17c-.5-.13-1.13-.27-1.81-.39A11.79,11.79,0,0,0,76.51,17.89Z"/><path class="cls-1" d="M25.9,56.6a10.35,10.35,0,0,0-4.4,1.54c-.33.2-.66.42-1,.65l-1.22.89a68.4,68.4,0,0,1,9.15,2.81c1.22.43,3.87,1.79,6.2,3A47.51,47.51,0,0,0,39,67.6a9.16,9.16,0,0,0,6.8-1.14A10.14,10.14,0,0,0,47,65.59c-2.34-1.69-11.58-7.72-15.94-8.67A17,17,0,0,0,25.9,56.6Z"/><path class="cls-1" d="M37.28,48.51A10,10,0,0,0,33.17,50a12.54,12.54,0,0,0-1.32.92l-1.25,1A66,66,0,0,1,40.39,54c.82.22,3,1.1,5.11,2,1.68.68,3.42,1.39,3.79,1.47a8.17,8.17,0,0,0,6-1,8.94,8.94,0,0,0,.92-.65c-2.28-1.52-11-6.33-14.76-7.09A13.54,13.54,0,0,0,37.28,48.51Z"/><path class="cls-1" d="M46.25,40.44a9.07,9.07,0,0,0-4,1.34,10,10,0,0,0-1,.67l-1.07.82a55.56,55.56,0,0,1,8.83,2.06c.71.2,2.36.81,3.9,1.37s2.71,1,3.08,1.09a7.77,7.77,0,0,0,5.9-.91l.42-.28c-2-1.36-8.83-5.11-12.31-5.88A12.6,12.6,0,0,0,46.25,40.44Z"/><path class="cls-1" d="M55.59,34.2a7.55,7.55,0,0,0-3.69,1.15l-1.15.77A49.66,49.66,0,0,1,57.91,38c.61.2,1.79.74,2.85,1.23.89.41,1.7.79,2,.87a6.71,6.71,0,0,0,5.15-.63c-1.65-1.18-6.28-4.18-9.14-4.93A10.89,10.89,0,0,0,55.59,34.2Z"/><path class="cls-1" d="M64.14,29.61a9.22,9.22,0,0,0-2.68.09,10.57,10.57,0,0,0-2.66,1.2A38.22,38.22,0,0,1,62.53,32c1.9.64,3.61,1.39,5.12,2l1.88.68a7.5,7.5,0,0,0,4.89-.36l.06,0-.1-.09a11.31,11.31,0,0,0-4.3-2.76A46.93,46.93,0,0,0,64.14,29.61Z"/><path class="cls-1" d="M71,27.68a12.62,12.62,0,0,0,8.76.55,13.75,13.75,0,0,0-6.2-2.78A11.29,11.29,0,0,0,67,26.51,22.58,22.58,0,0,1,71,27.68Z"/></g></g></svg>