<svg xmlns="http://www.w3.org/2000/svg" viewBox="0 0 284.01 55.14"><defs><style>.cls-1{fill:#69936c;}.cls-2{fill:#fff;}</style></defs><title>Logo-Horizontal-ForOnDark</title><g id="Layer_2" data-name="Layer 2"><g id="Layer_1-2" data-name="Layer 1"><path class="cls-1" d="M51.9,21.72A25,25,0,0,1,6.61,41.21a92.42,92.42,0,0,0,13.08-9.36A127.61,127.61,0,0,1,37.31,19.11c.8-.49,1.6-.95,2.39-1.39,1.13-.64,4.26-2.21,4.47-2.33.41-.25.76-.53,1.11-.78a1.49,1.49,0,0,0,.14-.12,6.43,6.43,0,0,0,1.88-2.28A6.23,6.23,0,0,0,48,9.38a3.76,3.76,0,0,0-2,1.22A7,7,0,0,0,44.63,13c-.08.24-.13.43-.16.51a2.66,2.66,0,0,1-1.39,1.48c-1.07.49-2.08,1-3.07,1.43a21.76,21.76,0,0,0,1.7-6.08,5.72,5.72,0,0,0-.12-1.69c-3.38,1.38-2.68,5.26-3,6.61a5.08,5.08,0,0,1-2.44,3.19c-.46.26-.9.5-1.34.76,0,0,.64-1.93.77-2.64a25.57,25.57,0,0,0,.35-7l-.27.15a4.58,4.58,0,0,0-2.25,2.61c-.24.84-.25,5.33-.43,6.14a5.19,5.19,0,0,1-2.31,3.19l-2.28,1.47.3-.65a13,13,0,0,0,.81-2.3,48.82,48.82,0,0,0,.46-9.75l-.11.07a8,8,0,0,0-3,3.61c-.67,1.6-.3,6.39-.7,8.7A5,5,0,0,1,24.09,26c-.89.64-1.77,1.24-2.64,1.86,0,0,.85-2.8,1-3.88a45,45,0,0,0,.35-12.22A7.79,7.79,0,0,0,19.26,16c-.54,2,0,10-.55,12.3a5,5,0,0,1-1.93,2.78c-1.2.86-2.5,1.77-2.5,1.77a21.32,21.32,0,0,0,1.15-3.66c.54-3.36,0-11.53-.3-13.76-.91.66-3.36,2-4,5-.46,2.13.89,9.52.72,11.22A5.61,5.61,0,0,1,8.5,36.06L4.66,37.62A25,25,0,0,1,44.08,8.79,15.22,15.22,0,0,1,46,7.08a27.53,27.53,0,1,0,8.48,14.46A13.53,13.53,0,0,1,51.9,21.72Z"/><path class="cls-1" d="M51.09,11.94a2.53,2.53,0,0,0-.61.28l-.08.06a6.57,6.57,0,0,0-1.73,1.82l-.11.16.23,0a13.78,13.78,0,0,0,3,.26,4.25,4.25,0,0,0,.84-.12A4.83,4.83,0,0,0,53.68,14,7.78,7.78,0,0,0,54.9,13c.26-.24.51-.49.77-.78-.33-.09-.75-.18-1.21-.26A8,8,0,0,0,51.09,11.94Z"/><path class="cls-1" d="M17.29,37.79a6.89,6.89,0,0,0-2.93,1c-.22.13-.44.28-.66.44l-.81.59A46.51,46.51,0,0,1,19,41.72c.81.29,2.58,1.2,4.14,2,1.29.66,2.63,1.35,2.9,1.41a6.11,6.11,0,0,0,4.54-.77,6.17,6.17,0,0,0,.81-.57c-1.57-1.13-7.74-5.16-10.64-5.79A11.54,11.54,0,0,0,17.29,37.79Z"/><path class="cls-1" d="M24.89,32.39a6.63,6.63,0,0,0-2.74,1,7.29,7.29,0,0,0-.88.61l-.84.66A44.18,44.18,0,0,1,27,36.07c.55.15,2,.74,3.41,1.31,1.12.46,2.29.93,2.53,1a5.48,5.48,0,0,0,4-.68c.24-.15.44-.3.61-.43-1.52-1-7.32-4.23-9.85-4.74A9.3,9.3,0,0,0,24.89,32.39Z"/><path class="cls-1" d="M30.89,27a6,6,0,0,0-2.64.9,5.82,5.82,0,0,0-.66.44l-.71.55a36.93,36.93,0,0,1,5.89,1.38c.47.13,1.58.54,2.6.91s1.82.67,2.06.73a5.17,5.17,0,0,0,3.94-.61l.28-.18c-1.35-.91-5.89-3.41-8.22-3.93A8.37,8.37,0,0,0,30.89,27Z"/><path class="cls-1" d="M37.12,22.84a5.12,5.12,0,0,0-2.47.76l-.76.52a33.8,33.8,0,0,1,4.78,1.28c.41.13,1.19.49,1.9.82s1.13.52,1.33.57a4.48,4.48,0,0,0,3.43-.41,25.06,25.06,0,0,0-6.1-3.3A7.17,7.17,0,0,0,37.12,22.84Z"/><path class="cls-1" d="M42.83,19.77a5.94,5.94,0,0,0-1.79.06,7.23,7.23,0,0,0-1.77.8c.67.15,1.56.43,2.48.74,1.27.43,2.41.93,3.42,1.31l1.26.45a5,5,0,0,0,3.26-.24h0l-.06-.07A7.66,7.66,0,0,0,46.79,21,32.08,32.08,0,0,0,42.83,19.77Z"/><path class="cls-1" d="M47.4,18.49a8.42,8.42,0,0,0,5.85.36A9.19,9.19,0,0,0,49.11,17a7.55,7.55,0,0,0-4.35.71A14.79,14.79,0,0,1,47.4,18.49Z"/><path class="cls-2" d="M80.63,21.18a5.49,5.49,0,0,0-3-1.13c-2.16-.06-3.69.94-3.77,2.6-.08,1.25.64,2.11,1.94,2.74l4.27,2.14c2.08,1,3.27,2.46,3.27,4.54,0,3-2.44,5.49-6.24,5.46a7.88,7.88,0,0,1-5.82-2.44L73,33.4a6,6,0,0,0,4.24,1.69c2.25,0,3.61-1.27,3.61-2.91,0-.91-.45-1.77-2-2.52l-4.16-2c-2.44-1.17-3.49-3.05-3.35-5.13.19-3.27,3.08-5.12,6.46-4.88a7.66,7.66,0,0,1,4.68,1.92Z"/><rect class="cls-2" x="93.46" y="17.86" width="2.52" height="19.4"/><polygon class="cls-2" points="118.44 34.81 118.44 37.25 107.08 37.25 107.08 17.86 109.6 17.86 109.6 34.81 118.44 34.81"/><polygon class="cls-2" points="141.28 17.86 132.39 37.25 123.47 17.86 126.29 17.86 132.39 31.3 138.46 17.86 141.28 17.86"/><polygon class="cls-2" points="162.21 34.81 162.21 37.25 150.82 37.25 150.82 17.86 161.88 17.86 161.88 20.3 153.34 20.3 153.34 26.47 160.3 26.47 160.3 28.66 153.34 28.66 153.34 34.81 162.21 34.81"/><path class="cls-2" d="M186.15,37.25h-2.71l-1.58-4.54c-.61-1.72-1.08-2.63-2.75-2.63h-4.23v7.17h-2.53V17.86h7.15A6.17,6.17,0,0,1,185.79,24a6,6,0,0,1-3.24,5.32,6,6,0,0,1,1.66,2.6Zm-6.79-9.36A3.84,3.84,0,0,0,183.27,24a3.72,3.72,0,0,0-3.91-3.75h-4.48v7.6Z"/><polygon class="cls-2" points="205.64 20.3 205.64 26.47 212.81 26.47 212.81 28.66 205.64 28.66 205.64 37.25 203.12 37.25 203.12 17.86 214.4 17.86 214.4 20.3 205.64 20.3"/><polygon class="cls-2" points="235.93 34.81 235.93 37.25 224.54 37.25 224.54 17.86 235.6 17.86 235.6 20.3 227.06 20.3 227.06 26.47 234.02 26.47 234.02 28.66 227.06 28.66 227.06 34.81 235.93 34.81"/><path class="cls-2" d="M259.87,37.25h-2.71l-1.58-4.54c-.61-1.72-1.08-2.63-2.75-2.63H248.6v7.17h-2.53V17.86h7.15A6.17,6.17,0,0,1,259.51,24a6,6,0,0,1-3.24,5.32,6,6,0,0,1,1.66,2.6Zm-6.79-9.36A3.84,3.84,0,0,0,257,24a3.72,3.72,0,0,0-3.91-3.75H248.6v7.6Z"/><polygon class="cls-2" points="284.01 17.86 284.01 37.25 272.54 24.51 272.54 37.25 270.02 37.25 270.02 17.86 281.52 30.66 281.52 17.86 284.01 17.86"/></g></g></svg>